<?xml version="1.0" encoding="utf-8"?>
<!-- Generator: Adobe Illustrator 16.0.0, SVG Export Plug-In . SVG Version: 6.00 Build 0)  -->
<!DOCTYPE svg PUBLIC "-//W3C//DTD SVG 1.1//EN" "http://www.w3.org/Graphics/SVG/1.1/DTD/svg11.dtd">
<svg version="1.1" id="Layer_1" xmlns="http://www.w3.org/2000/svg" xmlns:xlink="http://www.w3.org/1999/xlink" x="0px" y="0px"
	 width="20px" height="20px" viewBox="0 0 20 20" enable-background="new 0 0 20 20" xml:space="preserve">
<path fill="#9EA3A8" d="M17.723,1.189l-0.74-1.053c-0.049-0.07-0.125-0.118-0.209-0.132c-0.084-0.015-0.17,0.005-0.24,0.054
	l-0.645,0.454l-0.146-0.208c-0.104-0.146-0.303-0.181-0.449-0.078s-0.18,0.304-0.078,0.449l0.146,0.208L5.743,7.661
	c-0.427,0.301-0.712,0.75-0.8,1.264C4.924,9.032,4.914,9.141,4.914,9.248L4.903,9.251c-0.266,0.101-0.56,0.104-0.828,0.011
	c-0.301-0.106-0.633-0.077-0.911,0.08C3.009,9.43,2.954,9.627,3.042,9.782c0.087,0.154,0.284,0.209,0.439,0.122
	c0.116-0.065,0.255-0.078,0.381-0.033C4.06,9.939,4.267,9.975,4.474,9.975c0.184,0,0.367-0.028,0.545-0.083
	c0.059,0.172,0.144,0.338,0.252,0.493l0.063,0.09c0.034,0.049,0.071,0.094,0.108,0.139c-0.188,0.176-0.313,0.408-0.358,0.668
	c-0.036,0.211-0.016,0.424,0.056,0.619c-1.234,1.004-1.785,2.664-1.376,4.217l0.889,3.377c0.027,0.104,0.102,0.186,0.201,0.221
	c0.036,0.014,0.073,0.021,0.11,0.021c0.066,0,0.131-0.021,0.186-0.061l3.194-2.25c0.078-0.055,0.127-0.141,0.135-0.234
	c0.009-0.094-0.024-0.188-0.09-0.254L7.314,15.84c-0.597-0.611-0.629-1.561-0.074-2.209l0.292-0.342l0.233,0.146
	c0.178,0.113,0.377,0.168,0.575,0.168c0.276,0,0.549-0.107,0.758-0.314l0.433-0.432c0.373-0.371,0.424-0.951,0.12-1.383L9.36,11.061
	l1.697-1.195c0.069-0.049,0.116-0.124,0.131-0.208s-0.005-0.171-0.054-0.241L10.834,8.99l0.536-0.377
	c0.069-0.049,0.116-0.125,0.13-0.208c0.016-0.084-0.004-0.171-0.053-0.241l-0.53-0.753l4.556-3.209l0.018,0.027
	c0.064,0.089,0.164,0.137,0.266,0.137c0.062,0,0.129-0.019,0.184-0.059c0.146-0.103,0.182-0.304,0.078-0.449l-0.02-0.027
	l0.391-0.275c0.146-0.102,0.18-0.303,0.078-0.449s-0.303-0.181-0.449-0.078l-0.389,0.275l-0.115-0.163l2.133-1.502
	C17.791,1.536,17.826,1.335,17.723,1.189z M9.077,12.402l-0.433,0.43C8.5,12.975,8.28,12.998,8.109,12.891L7.773,12.68l-0.016-0.157
	c0.076-0.039,0.148-0.083,0.213-0.134L8.196,12.6c0.062,0.057,0.142,0.086,0.221,0.086c0.085,0,0.172-0.035,0.235-0.104
	c0.122-0.129,0.114-0.334-0.016-0.455l-0.274-0.255c0.023-0.051,0.047-0.101,0.065-0.154l0.405-0.286l0.292,0.414
	C9.247,12.02,9.226,12.252,9.077,12.402z"/>
<g>
</g>
<g>
</g>
<g>
</g>
<g>
</g>
<g>
</g>
<g>
</g>
<g>
</g>
<g>
</g>
<g>
</g>
<g>
</g>
<g>
</g>
<g>
</g>
<g>
</g>
<g>
</g>
<g>
</g>
</svg>
